M48
;DRILL file {KiCad 4.0.6} date 08/22/17 12:25:49
;FORMAT={-:-/ absolute / metric / decimal}
FMAT,2
METRIC,TZ
T1C0.800
T2C1.000
T3C1.001
T4C1.200
T5C1.700
%
G90
G05
M71
T1
X86.6Y-90.2
X86.6Y-100.36
X88.9Y-90.2
X88.9Y-100.36
X117.Y-120.5
X117.Y-123.
X138.Y-96.6
X138.Y-99.1
X141.5Y-131.
X141.5Y-135.
T2
X91.69Y-98.26
X91.69Y-113.5
X94.23Y-98.26
X94.23Y-113.5
X96.77Y-98.26
X96.77Y-113.5
X99.31Y-98.26
X99.31Y-113.5
X101.85Y-98.26
X101.85Y-113.5
X104.39Y-98.26
X106.93Y-98.26
X106.93Y-113.5
X109.47Y-98.26
X109.47Y-113.5
X112.01Y-98.26
X112.01Y-113.5
X114.55Y-113.5
X117.09Y-113.5
X119.63Y-98.26
X119.63Y-113.5
X122.17Y-98.26
X124.71Y-98.26
X127.25Y-98.26
T3
X102.25Y-116.499
X102.25Y-126.501
X104.2Y-106.001
X111.8Y-116.701
X136.1Y-131.501
X143.4Y-99.901
T4
X80.86Y-87.7
X83.4Y-87.7
X92.26Y-87.7
X94.8Y-87.7
X99.28Y-87.7
X101.82Y-87.7
X104.36Y-87.7
X106.3Y-131.2
X106.9Y-87.7
X108.84Y-131.2
X116.8Y-87.7
X119.34Y-87.7
X121.88Y-87.7
X124.42Y-87.7
X128.46Y-87.7
X131.Y-87.7
T5
X113.338Y-132.7
X117.3Y-132.7
X151.5Y-111.438
X151.5Y-115.4
X151.5Y-130.738
X151.5Y-134.7
X151.8Y-96.038
X151.8Y-100.
T0
M30
